<svg width="60" height="60" viewBox="0 0 60 60" fill="none" xmlns="http://www.w3.org/2000/svg">
<rect width="60" height="60" rx="15" fill="#B8EB00"/>
<path d="M43.6474 14.5358C49.02 15.9606 52.2205 21.4712 50.7957 26.8439C49.845 30.4288 47.0745 33.0439 43.7403 33.9657C46.1792 36.4186 47.2901 40.063 46.3395 43.6478C44.9146 49.0201 39.4041 52.2198 34.0317 50.7952C30.4469 49.8446 27.8317 47.0746 26.9096 43.7407C24.4568 46.179 20.8131 47.2897 17.2287 46.3392C11.8563 44.9144 8.65578 39.4037 10.0804 34.0312C11.0309 30.4469 13.8007 27.8312 17.1339 26.9089C14.6959 24.456 13.5859 20.8123 14.5364 17.2282C15.9612 11.8557 21.4718 8.65508 26.8444 10.0798C30.4288 11.0304 33.0433 13.8006 33.9655 17.134C36.4183 14.6953 40.0628 13.5853 43.6474 14.5358ZM31.3659 26.9368C30.1366 28.1591 28.6093 29.0467 26.9385 29.509C28.1605 30.7381 29.0475 32.2657 29.5098 33.9361C30.7391 32.7142 32.2672 31.8271 33.9378 31.3651C32.7156 30.1356 31.8279 28.6078 31.3659 26.9368Z" fill="#2E3B00"/>
</svg>
