<svg width="60" height="60" viewBox="0 0 60 60" fill="none" xmlns="http://www.w3.org/2000/svg">
<rect width="60" height="60" rx="15" fill="#35CDFF"/>
<path d="M39.4834 30.1973C44.1559 30.4339 47.8711 34.2971 47.8711 39.0283C47.8711 43.9119 43.9128 47.8708 39.0293 47.8711H21.3438C16.46 47.8711 12.501 43.912 12.501 39.0283C12.501 34.2971 16.2163 30.4339 20.8887 30.1973L21.3438 30.1855C16.46 30.1855 12.501 26.2265 12.501 21.3428C12.501 16.4591 16.46 12.5 21.3438 12.5H39.0293C43.9128 12.5003 47.8711 16.4592 47.8711 21.3428C47.8711 26.2263 43.9128 30.1853 39.0293 30.1855L39.4834 30.1973Z" fill="#103E4D"/>
</svg>
