<svg width="60" height="60" viewBox="0 0 60 60" fill="none" xmlns="http://www.w3.org/2000/svg">
<rect width="60" height="60" rx="15" fill="#C2C1C3"/>
<path d="M46.4722 25.9282C49.3443 25.9282 51.6724 28.2572 51.6724 31.1294C51.6721 33.9952 49.3542 36.3186 46.4907 36.3286C49.3541 36.3387 51.6721 38.6631 51.6724 41.5288C51.6724 44.4009 49.3442 46.7299 46.4722 46.73H36.0708C33.1987 46.7299 30.8706 44.4009 30.8706 41.5288C30.8708 38.6634 33.1883 36.3392 36.0513 36.3286C33.1884 36.3179 30.8709 33.9947 30.8706 31.1294C30.8706 28.2574 33.1988 25.9284 36.0708 25.9282H46.4722Z" fill="#FAFAFA"/>
<rect x="11.2314" y="33.7959" width="20.802" height="20.802" rx="5.86825" fill="#FAFAFA"/>
<path d="M27.8669 14.7963C30.8296 15.6464 32.5426 18.7372 31.6927 21.7C31.1254 23.6768 29.5596 25.0948 27.7007 25.5685C29.026 26.9557 29.6006 28.9893 29.0335 30.9666C28.1834 33.9292 25.0926 35.6422 22.1298 34.7923C20.153 34.2251 18.7339 32.6598 18.2601 30.801C16.8729 32.1253 14.8407 32.7003 12.8642 32.1334C9.90154 31.2833 8.18851 28.1925 9.0384 25.2298C9.60534 23.2534 11.1698 21.8338 13.0278 21.3594C11.7039 19.9723 11.1295 17.9401 11.6964 15.9638C12.5465 13.0012 15.6373 11.2882 18.6 12.138C20.5764 12.705 21.9949 14.27 22.4691 16.1281C23.8563 14.8032 25.89 14.2292 27.8669 14.7963ZM20.9184 21.5341C20.2233 22.198 19.367 22.673 18.4357 22.9107C19.0996 23.6059 19.5744 24.463 19.812 25.3944C20.5073 24.7307 21.3642 24.2554 22.2957 24.018C21.6317 23.3227 21.1559 22.4658 20.9184 21.5341Z" fill="#FAFAFA"/>
<path d="M34.4613 8.01533C35.1617 4.89877 38.9467 3.92211 41.0676 6.31068L50.5711 17.0135C52.5749 19.2703 51.5784 22.88 48.75 23.6098L36.1082 26.8718C33.2798 27.6016 30.6612 24.9248 31.3229 21.9802L34.4613 8.01533Z" fill="#FAFAFA"/>
</svg>
